<?xml version="1.0" encoding="UTF-8" standalone="no"?>
<svg
   xmlns:dc="http://purl.org/dc/elements/1.1/"
   xmlns:cc="http://creativecommons.org/ns#"
   xmlns:rdf="http://www.w3.org/1999/02/22-rdf-syntax-ns#"
   xmlns:svg="http://www.w3.org/2000/svg"
   xmlns="http://www.w3.org/2000/svg"
   xmlns:sodipodi="http://sodipodi.sourceforge.net/DTD/sodipodi-0.dtd"
   xmlns:inkscape="http://www.inkscape.org/namespaces/inkscape"
   width="750"
   height="719.86542"
   viewBox="0 0 750 719.86542"
   id="svg3500"
   version="1.1"
   inkscape:version="0.91 r13725"
   sodipodi:docname="bg.svg">
  <metadata
     id="metadata3624">
    <rdf:RDF>
      <cc:Work
         rdf:about="">
        <dc:format>image/svg+xml</dc:format>
        <dc:type
           rdf:resource="http://purl.org/dc/dcmitype/StillImage" />
        <dc:title />
      </cc:Work>
    </rdf:RDF>
  </metadata>
  <defs
     id="defs3622" />
  <sodipodi:namedview
     pagecolor="#ffffff"
     bordercolor="#666666"
     borderopacity="1"
     objecttolerance="10"
     gridtolerance="10"
     guidetolerance="10"
     inkscape:pageopacity="0"
     inkscape:pageshadow="2"
     inkscape:window-width="1840"
     inkscape:window-height="1329"
     id="namedview3620"
     showgrid="false"
     inkscape:zoom="1.3210803"
     inkscape:cx="259.77756"
     inkscape:cy="401.2059"
     inkscape:window-x="509"
     inkscape:window-y="503"
     inkscape:window-maximized="0"
     inkscape:current-layer="svg3500"
     fit-margin-top="0"
     fit-margin-left="0"
     fit-margin-right="0"
     fit-margin-bottom="0"
     showguides="true" />
  <style
     id="style3502">.a{fill:#fff;}.b{fill:#010101;}.c{fill:#fefefe;}</style>
  <path
     d="m 1.8095986,1.0644697 750.0000014,0 0,719.8654403 -750.0000014,0 0,-719.8654403 z"
     id="path3504"
     inkscape:connector-curvature="0"
     style="opacity:0.98000004" />
  <path
     d="m 362.7,41.85054 c 3.7,-3.1 8.5,-4.7 13.4,-4.6 -2.5,1.6 -5.5,3.4 -5.7,6.7 -0.2,5.9 0.3,11.8 0.4,17.8 4.8,-3.8 9.6,-7.7 14.9,-10.9 3.4,3.1 7,6 10.3,9.3 -3.7,2.2 -7.4,4.5 -11,6.8 6.1,4.3 9.5,11.3 9.8,18.6 1.6,0 3.1,0.1 4.6,0.2 -3,2.8 -6.9,4.4 -10.3,6.7 -0.6,-0.3 -1.7,-0.8 -2.2,-1.1 -1.4,-2.3 -2.6,-4.6 -3.7,-7 -4,2.7 -8.2,5.2 -12.2,8 -3.8,-1.9 -7.8,-3.2 -11.9,-4.2 0.6,-1.6 1.7,-3.2 1.5,-5 -0.3,-8.3 -1.3,-16.6 -1.5,-24.9 -2.1,0 -4.2,0 -6.3,0.1 -0.1,-1.6 -0.2,-3.2 -0.3,-4.8 2.1,-0.1 4.1,-0.2 6.1,-0.3 0.7,-5.4 -2,-10.1 -5.9,-13.6 3.4,0.1 6.7,1.1 10,2.2 z"
     class="a"
     id="path3506"
     inkscape:connector-curvature="0"
     style="fill:#f280a1;opacity:0.98;fill-opacity:1" />
  <path
     d="m 423.7,55.35054 c 1.2,-0.3 2.5,-1.2 3.8,-0.8 4.7,1.6 9,4 13.6,5.8 2,-0.2 3.9,-0.7 5.8,-0.8 -1.8,1.7 -3.6,3.4 -5.3,5.2 -1.1,4.8 -1.9,9.5 -2.9,14.2 -0.7,3.8 -2,7.5 -1.1,11.4 1.8,0.2 3.6,0.3 5.4,0.6 -3.5,2.3 -7.5,3.7 -11.3,5.5 -4.2,-1.5 -5.2,-6.3 -5.2,-10.3 -5,2.3 -9.8,4.9 -14.7,7.3 -3.4,-1.3 -6,-4.2 -7.3,-7.6 -1.7,-3.5 0.4,-7.2 2.1,-10.2 2.2,-3.4 5.6,-5.8 9.2,-7.6 -1.3,-3.9 -2.8,-7.7 -4.4,-11.5 4.1,0.2 8.4,0.3 12.3,-1.2 z"
     class="a"
     id="path3508"
     inkscape:connector-curvature="0"
     style="fill:#f280a1;opacity:0.98;fill-opacity:1" />
  <path
     d="m 370.9,66.05054 c 1.4,-3.7 5.2,-5.4 8.3,-7.5 2,1.6 4,3 5.9,4.8 -0.2,0.9 -0.7,1.7 -1.6,2.1 -4.1,2.9 -8.2,5.8 -12.1,8.9 -0.1,-2.8 -0.5,-5.5 -0.5,-8.3 z"
     class="b"
     id="path3510"
     inkscape:connector-curvature="0"
     style="fill:#010101;opacity:0.98" />
  <path
     d="m 415.1,58.25054 c 5,1.7 9.8,3.9 14.8,5.8 -0.3,3.1 -0.6,6.2 -1.2,9.2 -3.4,-1.6 -6.6,-3.7 -10,-5.4 -1.3,-3.1 -2.5,-6.3 -3.6,-9.6 z"
     class="b"
     id="path3512"
     inkscape:connector-curvature="0"
     style="fill:#010101;opacity:0.98" />
  <path
     d="m 451.8,65.35054 c 4.2,-1.8 8.5,-3.2 12.7,-4.8 3.2,2.9 5.3,6.9 5.2,11.3 5.5,-2 11.1,-3.7 16.8,-5.4 3.7,2.9 5.7,7.3 6.2,11.9 5.3,-1.6 10.7,-3 16.1,-4.2 1.8,2.8 3.5,5.5 5.2,8.3 2.4,-0.2 5.6,-2.4 7.4,0.3 -2.8,1.5 -6.6,2.4 -7.7,5.8 -2.5,5.6 -5.1,11.1 -7.5,16.7 -1,1.6 -0.1,3.4 0.2,5.1 0.8,0 2.4,-0.1 3.2,-0.1 0,0.5 0.1,1.3 0.1,1.8 -3.7,0.7 -7.3,1.6 -11,2.5 -1.3,-1.3 -3.1,-2.4 -3.7,-4.3 -0.9,-3 0.1,-6.2 1.3,-8.9 2.4,-5.8 4.7,-11.7 7.1,-17.4 -0.7,-1.7 -1.5,-3.2 -2.3,-4.8 -3.3,-0.1 -6.5,1 -9.6,1.8 -2.3,5.8 -4.4,11.6 -6.5,17.5 -1,2.1 1.1,3.9 1.8,5.9 -3.5,0.5 -7,2 -10.6,1.9 -2.3,-2.1 -4.1,-4.8 -6.1,-7.2 1.3,-0.6 2.7,-1.2 4,-1.9 2,-6.4 4.2,-12.6 6.2,-19 0.8,-2.4 -0.1,-5.3 -2.3,-6.6 -3.4,0.6 -6.6,2.1 -9.9,3.2 -1.4,5.8 -3.3,11.5 -4.7,17.3 -0.6,2.2 1.3,4 2.1,5.9 -3.4,1 -6.7,2.2 -10.1,3.1 -1.9,-2.7 -5.1,-4.6 -6.1,-7.7 1,-0.5 2.1,-1 3.2,-1.4 1.8,-6.2 3,-12.6 4.6,-18.8 0.4,-2.1 1.3,-4.4 0.1,-6.4 -1.8,-0.4 -3.7,-0.4 -5.4,-1.4 z"
     class="a"
     id="path3514"
     inkscape:connector-curvature="0"
     style="fill:#f280a1;opacity:0.98;fill-opacity:1" />
  <path
     d="m 296.2,65.25054 c 1.5,-1.1 3.1,-2.2 4.8,-3.2 -0.7,2.6 -2.2,5 -2.3,7.7 1.4,6.1 3.1,12.2 4.5,18.2 0.6,2 0.8,4.6 2.8,5.7 1.8,-0.1 3.5,-0.7 5.2,-1 -2.6,3 -5.1,6.2 -8.1,8.8 -4.6,1.1 -7.5,-3.6 -9.1,-7.2 -3.5,4.2 -7.1,8.2 -10.3,12.5 -4.8,-0.2 -10.3,-2.5 -12.1,-7.3 -1.5,-6.3 0.5,-12.8 4.8,-17.5 -2.9,-3.1 -5.9,-6 -9,-8.9 5.2,-1.4 9.7,-4.4 13.4,-8.2 5.1,-0.1 10.2,0.4 15.4,0.4 z"
     class="a"
     id="path3516"
     inkscape:connector-curvature="0"
     style="fill:#f280a1;opacity:0.98;fill-opacity:1" />
  <path
     d="m 218.8,78.55054 c 2.2,-4.6 6,-8.3 10.6,-10.5 -1.5,2.9 -3.5,6.1 -2.4,9.5 1.8,4.9 4.5,9.5 6.8,14.2 3.3,-5 6.9,-9.8 10.5,-14.6 4.8,0.3 10.8,2.1 12.4,7.4 2.7,7.1 6,14.1 8.6,21.3 0.7,5.5 -2.1,10.8 -5.7,14.7 -4,4.4 -8.2,8.6 -13.4,11.4 0.1,-0.6 0.2,-1.8 0.3,-2.3 4.4,-4.4 9.3,-9.1 10.2,-15.5 0.5,-2 -0.6,-3.8 -1.3,-5.6 -3.1,-6.7 -6,-13.4 -9.1,-20 -0.8,-2.4 -3.8,-1.7 -5.7,-2.3 -1.9,2.7 -4.5,5.2 -5.5,8.4 2.6,6.1 6,11.9 8.8,18 1.5,0.5 3,1 4.5,1.5 -1.7,2.8 -3.4,5.7 -5.1,8.6 -3.3,-0.4 -6.6,-1 -10,-1.3 0.4,-1.5 1,-2.9 1.2,-4.4 -4,-7.7 -8.3,-15.4 -12.4,-23 -1.8,0.8 -3.6,1.7 -5.3,2.6 -0.9,-1.3 -1.7,-2.6 -2.5,-3.9 1.9,-1 3.9,-2 5.8,-3 -1.3,-2.6 -2.2,-5.6 -4.6,-7.3 -2.1,-1.6 -4.9,-1.9 -7.4,-2.4 3.4,-1.4 7.1,-1.9 10.7,-1.5 z"
     class="a"
     id="path3518"
     inkscape:connector-curvature="0"
     style="fill:#f280a1;opacity:0.98;fill-opacity:1" />
  <path
     d="m 414.3,75.05054 c 0.6,-2.1 2,-3.8 3.8,-4.9 3.7,1.5 7,3.8 10.4,5.7 -0.4,2.6 -0.8,5.1 -1.2,7.7 -3,1.6 -6.2,3.2 -9.4,4.6 -2.4,-3.8 -5.3,-8.5 -3.6,-13.1 z"
     id="path3520"
     inkscape:connector-curvature="0"
     style="opacity:0.98" />
  <path
     d="m 271.4,73.45054 c 5.4,-0.8 10.8,-0.5 16.2,-0.6 1.1,2.9 1.9,5.9 2.9,8.9 -4,-0.2 -8,-0.9 -11.9,-1.3 -2.4,-2.4 -4.8,-4.7 -7.2,-7 z"
     class="b"
     id="path3522"
     inkscape:connector-curvature="0"
     style="fill:#010101;opacity:0.98" />
  <path
     d="m 371.3,77.25054 c 1.9,-1.3 3.8,-2.6 5.7,-4 2.9,2.3 5.2,5.2 6.3,8.7 -2,1.3 -4,2.8 -6.2,3.9 -1.9,-0.5 -3.8,-1.2 -5.7,-1.8 -0.1,-2.2 -0.2,-4.5 -0.1,-6.8 z"
     class="b"
     id="path3524"
     inkscape:connector-curvature="0"
     style="fill:#010101;opacity:0.98" />
  <path
     d="m 286.9,99.05054 c -6.3,-2.2 -11.6,-10 -7.6,-16.4 4,0.7 8.1,0.9 12.1,1.7 0.3,2.9 3.3,6.3 0.9,8.9 -1.7,2 -3.2,4.4 -5.4,5.8 z"
     id="path3526"
     inkscape:connector-curvature="0"
     style="opacity:0.98" />
  <path
     d="m 525.8,89.05054 c 4.2,-1.6 8.8,-1.8 13.2,-2.3 2.5,2.7 3.4,6.3 3.4,9.9 4.3,-0.3 8.7,-0.6 13.1,-1 1.3,3.2 2.5,6.5 3.6,9.9 -3.3,0.2 -6.6,0.3 -9.8,0.2 -1,-2.4 -2,-4.8 -3.1,-7.2 -1.8,0 -3.5,0.1 -5.3,0.2 -3.2,5.8 -6.6,11.6 -9.7,17.4 -1.6,2.3 1.1,4.4 1.9,6.4 1.8,0 3.5,-0.1 5.3,-0.2 0.1,0.6 0.4,1.7 0.5,2.3 -4.9,0.1 -9.8,0.8 -14.7,1.1 -1.8,-4 -4.3,-7.8 -7.4,-10.9 2.3,-1.1 5.1,-2 6.2,-4.5 2.5,-5 5.1,-9.9 7.6,-14.8 1,-1.5 0.3,-3.3 0.1,-4.9 -1.7,-0.5 -3.3,-1 -4.9,-1.6 z"
     class="a"
     id="path3528"
     inkscape:connector-curvature="0"
     style="fill:#f280a1;opacity:0.98;fill-opacity:1" />
  <path
     d="m 187.6,113.25054 c 1.1,-7.6 2.9,-15 5,-22.3 2.1,3.5 4.3,7 6.5,10.4 3.5,-1.9 7,-4.2 10.7,-5.8 0.7,1.1 1.3,2.3 2,3.5 -3.6,1.8 -7.1,3.9 -10.5,6 4.5,7.2 9.2,14.4 13.7,21.7 2,0.1 4,0.1 6,0.1 1.1,-1.7 2,-3.9 4.5,-3.7 -1.9,4.3 -4,8.4 -5.8,12.6 -4.6,-0.2 -9.3,-0.1 -13.8,1 -0.2,-2.6 -0.2,-5.5 -1.8,-7.7 -4,-5.9 -8.2,-11.7 -12.1,-17.7 -1.5,0.6 -3,1.3 -4.4,1.9 z"
     class="a"
     id="path3530"
     inkscape:connector-curvature="0"
     style="fill:#f280a1;opacity:0.98;fill-opacity:1" />
  <path
     d="m 567.1,120.45054 c 0.4,-4.1 1.1,-8.1 1.6,-12.2 4.4,3.2 9.7,4.4 14.9,5.5 3.4,3.7 6.1,7.9 9.4,11.6 1.7,0.9 3.6,1.5 5.4,2.3 -3.1,1 -6.9,1.1 -8.9,4 -4.1,5.1 -8.5,10.1 -12.7,15.3 -1.2,1.2 -1.2,2.9 -1.2,4.5 0.7,0.1 2.1,0.4 2.8,0.5 0.1,0.5 0.3,1.5 0.4,2 -3.6,-0.3 -7.3,-0.3 -10.9,-0.8 -4.6,-2.3 -2.1,-8.3 -0.2,-11.7 -5.7,-0.1 -11.3,-0.2 -17,-0.1 -2.3,-3.9 -3.6,-9 -1.6,-13.2 4.1,-5.6 11.3,-8 18,-7.7 z"
     class="a"
     id="path3532"
     inkscape:connector-curvature="0"
     style="fill:#f280a1;opacity:0.98;fill-opacity:1" />
  <path
     d="m 147.8,125.25054 c -3.9,-7.2 4.1,-15 11.2,-15 3.1,-0.4 6.2,2.5 5.6,5.7 -0.8,7.3 -10,13.3 -16.8,9.3 z"
     class="c"
     id="path3534"
     inkscape:connector-curvature="0"
     style="fill:#f280a1;opacity:0.98;fill-opacity:1" />
  <path
     d="m 570.9,111.35054 c 3.6,4 7.4,7.9 10.2,12.6 -1.6,2.5 -3.6,4.8 -5.4,7.2 -2.1,-3.2 -4.3,-6.4 -6.1,-9.8 0.2,-3.4 0.9,-6.7 1.3,-10 z"
     class="b"
     id="path3536"
     inkscape:connector-curvature="0"
     style="fill:#010101;opacity:0.98" />
  <path
     d="m 149.4,120.15054 c 1.4,-3.2 3.8,-6.6 7.6,-6.9 2.4,-0.6 5.1,1.3 4.5,3.9 -1,3.6 -4.4,6.5 -8.2,6.6 -2.1,0.1 -3,-2.1 -3.9,-3.6 z"
     class="b"
     id="path3538"
     inkscape:connector-curvature="0"
     style="fill:#010101;opacity:0.98" />
  <path
     d="m 175.2,120.35054 c 1,-1.6 2.1,-3.3 3.2,-4.9 0.4,3.1 -0.5,6.8 1.7,9.4 4.4,5.7 8.5,11.6 13.1,17.2 2.2,2.2 4.7,-0.9 6.7,-1.9 -1.1,3.9 -2.6,7.6 -3.8,11.4 -4.1,2.4 -8.4,-0.4 -11.4,-3.2 -1.7,5.3 -3.3,10.6 -4.6,16 -4.6,1.4 -10.5,1.4 -14,-2.3 -3.9,-5.2 -4.5,-12.2 -2.5,-18.3 -3.9,-1.6 -7.8,-3.1 -11.8,-4.6 4.1,-3.3 7.1,-7.8 8.9,-12.7 4.8,-2.1 9.6,-4.2 14.5,-6.1 z"
     class="c"
     id="path3540"
     inkscape:connector-curvature="0"
     style="fill:#f280a1;opacity:0.98;fill-opacity:1" />
  <path
     d="m 561.6,126.55054 c 1.5,-2 4.1,-2.6 6.4,-3.3 2.1,3.4 4.4,6.7 6.2,10.3 -1.6,2 -3.2,4 -4.7,6.1 -3.5,-0.1 -6.9,-0.2 -10.3,-0.2 -1,-4.4 -0.5,-9.3 2.4,-12.9 z"
     id="path3542"
     inkscape:connector-curvature="0"
     style="opacity:0.98" />
  <path
     d="m 156,137.45054 c 4.7,-2.4 9.6,-4.5 14.5,-6.4 2,2.4 4,4.7 5.9,7.2 -3.8,0.9 -7.5,2.4 -11.4,3.2 -3,-1.1 -6.3,-2 -9,-4 z"
     id="path3544"
     inkscape:connector-curvature="0"
     style="opacity:0.98" />
  <path
     d="m 603.2,135.65054 c 7.8,-0.8 15.7,-1 23.6,-0.8 -2.9,3 -5.9,5.9 -8.7,9 2.8,2.9 5.7,5.8 8.6,8.6 -1.1,1 -2.1,2 -3.2,2.9 -2.8,-3 -5.6,-6 -8.9,-8.6 -5.3,5.7 -10.7,11.2 -16.2,16.7 -2.4,1.6 -0.8,4.6 -0.6,6.9 1.7,1.5 4.8,1.2 5.2,3.9 -4.8,-0.8 -9.5,-1.7 -14.2,-2.6 -0.8,-4.5 -2.1,-8.9 -4.4,-12.8 3.2,-0.9 6.4,-2.1 8.4,-4.9 4.2,-5.1 9.2,-9.5 13.2,-14.8 -0.9,-1.2 -1.9,-2.3 -2.8,-3.5 z"
     class="a"
     id="path3546"
     inkscape:connector-curvature="0"
     style="fill:#f280a1;opacity:0.98;fill-opacity:1" />
  <path
     d="m 166.4,143.65054 c 3.9,-1.4 7.9,-2.7 11.9,-3.6 1.6,2 3.5,3.8 4.6,6.1 -0.3,3.4 -1.6,6.6 -2.6,9.8 -4.3,-0.6 -9.1,-1.8 -11.9,-5.5 -1.7,-1.8 -1.8,-4.5 -2,-6.8 z"
     class="b"
     id="path3548"
     inkscape:connector-curvature="0"
     style="fill:#010101;opacity:0.98" />
  <path
     d="m 119.5,144.65054 c 2.9,-1 6.9,-0.5 7.9,2.9 1.4,6.4 -4.1,13.2 -10.4,14.3 -3.4,0.9 -6.9,-2.3 -6.4,-5.8 0.4,-5.1 4.3,-9.4 8.9,-11.4 z"
     id="path3550"
     inkscape:connector-curvature="0"
     style="fill:#f280a1;opacity:0.98;fill-opacity:1" />
  <path
     d="m 114.8,158.55054 c -3.7,-5.3 3.5,-13.7 9,-10.3 2.9,5.2 -3.5,12 -9,10.3 z"
     id="path3552"
     inkscape:connector-curvature="0"
     style="opacity:0.98" />
  <path
     d="m 139.1,151.55054 c 0.6,-1.7 1.3,-3.4 2.1,-5.1 0.5,2.5 1.1,5.1 1.6,7.6 5.2,5.3 10.5,10.4 15.7,15.6 1.2,1.5 3.1,1.6 4.7,1.9 0.2,-0.7 0.6,-2 0.7,-2.7 0.6,-0.1 1.6,-0.3 2.1,-0.4 -0.9,3.9 -0.7,8.3 -2.7,11.9 -3.5,2.8 -7.9,0.1 -11.1,-1.8 -0.8,5.6 -1.7,11.2 -2,16.8 -4.3,1.8 -9.7,3.3 -13.8,0.4 -5.3,-4.5 -6.6,-12 -5.8,-18.6 -4.1,-0.7 -8.1,-1.7 -12.2,-2.6 3.6,-4.1 5.8,-9.2 7.1,-14.4 4.5,-2.9 9,-5.7 13.6,-8.6 z"
     class="a"
     id="path3554"
     inkscape:connector-curvature="0"
     style="fill:#f280a1;opacity:0.98;fill-opacity:1" />
  <path
     d="m 500.7,160.45054 c 0.4,0 1.3,-0.1 1.7,-0.1 -0.1,2.2 -0.2,4.5 -0.6,6.7 -0.1,18.6 -0.1,37.3 -0.4,56 -0.1,4 0.1,8 -0.6,11.9 -0.1,3.1 -0.2,6.1 -0.8,9.1 -0.3,2 -0.5,4 -1,6.1 -0.4,1.9 -0.6,3.9 -1.2,5.8 -0.2,1.7 -0.5,3.4 -0.9,5 -0.3,1.4 -0.7,2.7 -1.1,4.1 -0.2,1 -0.4,2.1 -0.6,3.1 -0.4,1.3 -0.7,2.7 -1,4 -0.5,1.6 -0.9,3.2 -1.4,4.8 -0.9,3.4 -2,6.7 -3.1,10 -0.3,1 -0.7,2 -1,3 -0.5,1.4 -1,2.8 -1.5,4.3 -1.8,4.2 -3.4,8.5 -5.3,12.8 -1.6,3.3 -3.2,6.7 -5,10 -1.3,2.4 -2.6,4.7 -4,7.1 -5.2,8.4 -11.1,16.5 -18.3,23.4 -1.3,1.5 -3.3,2.7 -3.2,4.9 7.5,6.5 13.2,14.8 17.9,23.4 0.5,1.3 1.1,2.5 1.5,3.7 4.4,11.6 7.6,24 6.4,36.5 -1.8,13.4 -1.9,27 -4.6,40.3 -1,5.4 -2.5,10.7 -3.4,16.1 -0.4,0.9 -0.7,1.9 -1,2.8 -2.3,3 -5,5.7 -7.5,8.5 -0.2,0.3 -0.7,0.8 -0.9,1.1 -1.6,0.7 -3.3,1.4 -4.9,2 -1.7,0.7 -3.3,1.3 -5,2 -1.3,0.4 -2.5,0.9 -3.8,1.4 -1.4,0.5 -2.8,1.1 -4.2,1.6 -1.7,0.6 -3.3,1.3 -5,1.9 -1.2,0.5 -2.5,1 -3.8,1.6 -1.7,0.6 -3.4,1.2 -5,1.9 -1.4,0.5 -2.8,1.1 -4.2,1.6 -1.3,0.5 -2.5,1 -3.8,1.5 -1.7,0.7 -3.3,1.3 -5,2 -1.4,0.5 -2.8,1 -4.2,1.5 -1.7,0.7 -3.4,1.3 -5,2 -1.7,0.7 -3.3,1.3 -5,2.1 -1.5,0.3 -2.9,0.5 -4.4,0.7 -0.6,-4.5 -0.1,-9.1 0.4,-13.6 0.6,-2.3 0.8,-4.7 0.9,-7 -1.9,0.7 -3.8,1.5 -5.7,2.3 -1.4,0.6 -2.7,1.2 -4.1,1.8 -1.1,0.5 -2.1,1 -3.2,1.5 -3.3,1.7 -6.7,3.4 -10.1,5.1 -1.6,0.8 -3.2,1.6 -4.8,2.4 -3,1.5 -6,3.1 -9.1,4.6 -0.9,0.5 -1.8,1 -2.7,1.5 -1.5,0.8 -3,1.6 -4.5,2.5 -0.7,-0.8 -1.4,-1.6 -2,-2.4 -0.3,-0.5 -0.7,-1.6 -0.9,-2.1 -2.7,-6.1 -2.7,-12.8 -2,-19.3 0.5,-1.3 0.8,-2.7 1.2,-4 0.9,-2.5 1.9,-4.9 2.9,-7.3 -2.8,-1.2 -5.8,-1.8 -8.7,-2.7 -1,-0.4 -2,-0.7 -3,-1.1 -1,-0.3 -2,-0.6 -3,-0.9 -1.7,-0.7 -3.3,-1.4 -5,-2.1 -2.1,-0.8 -4.1,-1.7 -6.2,-2.5 -0.9,-0.5 -1.9,-1 -2.8,-1.5 -1.8,-0.8 -3.5,-1.7 -5.2,-2.6 -12.1,-6.7 -23.9,-15.7 -29.2,-28.9 -0.3,-1.1 -0.7,-2.1 -1,-3.1 -1.5,-5 -1.5,-10.2 -1,-15.3 0.7,-3 1.3,-6 2,-9 0.7,-2 1.4,-4 2,-6 0.7,-1.7 1.4,-3.3 2.1,-5 0.7,-1.3 1.3,-2.7 2,-4 6.4,-12.1 15.9,-22.3 27,-30.2 1.4,-1 2.8,-1.9 4.2,-2.8 2.7,-1.7 5.4,-3.2 8.1,-4.6 3.6,-1.8 7.3,-3.5 11,-5 1.2,-0.5 2.5,-0.9 3.8,-1.4 1,-0.4 2,-0.8 3,-1.2 0.6,-0.1 1.7,-0.3 2.3,-0.4 1.2,-0.5 2.5,-1 3.8,-1.5 1,-0.2 2,-0.4 3,-0.6 1.4,-0.4 2.7,-0.8 4.1,-1.1 1.9,-0.4 3.9,-0.8 5.9,-1.3 3.9,-0.7 8,-1.2 11.9,-2 2.3,-0.2 4.6,-0.4 6.8,-0.7 -1.2,-0.4 -2.5,-0.8 -3.7,-1.2 -1.3,-0.4 -2.6,-0.8 -3.8,-1.1 -1.1,-0.4 -2.1,-0.7 -3.1,-1.1 -2.4,-0.8 -4.8,-1.6 -7.2,-2.4 -1.3,-0.5 -2.5,-1 -3.8,-1.5 -1.7,-0.6 -3.3,-1.3 -5,-1.9 -4,-1.7 -8,-3.3 -12,-5.2 -2.7,-1.2 -5.4,-2.5 -8.1,-3.8 -0.5,-0.3 -1.4,-0.9 -1.9,-1.1 -1,-0.5 -2,-1.1 -3,-1.6 -13.1,-7.1 -25.7,-15.5 -36.3,-26 -0.3,-0.2 -0.8,-0.7 -1.1,-0.9 -1,-1.1 -2.1,-2.2 -3.1,-3.2 l -0.1,-0.6 -0.7,0 c -0.3,-0.3 -0.9,-0.9 -1.1,-1.2 -7.1,-6.7 -13.3,-14.2 -18.9,-22.1 -1.6,-2.4 -3.2,-4.8 -4.7,-7.2 -2.2,-3.6 -4.3,-7.2 -6.2,-11 -0.7,-1.3 -1.4,-2.7 -2,-4 -1.3,-2.7 -2.6,-5.3 -3.7,-8.1 -4,-8.9 -6.7,-18.4 -9.3,-27.8 -0.3,-1.4 -0.5,-2.8 -0.8,-4.2 -1.2,-6 -2.6,-12.2 -2.8,-18.4 l -0.6,0 c 0,-3 -0.2,-5.9 -0.2,-8.9 3,0.7 5.8,1.9 8.6,3.3 0.5,0.2 1.4,0.7 1.9,1 1.4,0.6 2.7,1.3 4.1,1.9 1.3,0.7 2.6,1.4 3.9,2.1 5.1,2.6 10.1,5.4 15,8.3 21.6,12.6 42.1,27.4 60.1,44.7 0.7,0.7 1.3,1.3 2,2 1.7,1.7 3.5,3.4 5.3,5 l 0.1,0.3 c 0.3,0.3 1,1 1.3,1.3 l 0.3,0.1 c 1,1.1 2,2.2 3,3.3 8.5,9.2 16.3,19 24.2,28.8 3.7,4.7 7.3,9.4 11,14.2 0.8,1 1.7,2.1 2.5,3.2 0.9,1.3 1.9,2.6 2.9,4 1.2,1.6 2.4,3.2 3.6,4.8 1.8,2.4 3.6,4.8 5.4,7.2 6.6,9.2 13.6,18.1 19.8,27.5 0.5,-7.9 -1.1,-15.7 -0.7,-23.7 0.9,-5.7 0.7,-11.6 0.9,-17.4 l 0.6,0 c 0.1,-2.9 0.3,-5.7 0.5,-8.5 0.6,-2.3 0.9,-4.7 1.1,-7 0.4,-2 0.8,-4 1.2,-5.9 0.5,-2.8 1.1,-5.5 1.7,-8.2 1.1,-3.9 2.1,-7.9 3.3,-11.8 1.1,-3.4 2.3,-6.8 3.6,-10.2 0.7,-1.7 1.4,-3.3 2.1,-5 1,-2.3 2.1,-4.6 3.3,-6.9 8.4,-16.4 20.2,-30.7 32.6,-44.3 7.1,-7.9 15,-15 23,-22 1.7,-1.3 3.4,-2.8 5,-4.3 z"
     class="a"
     id="path3556"
     inkscape:connector-curvature="0"
     style="fill:#f280a1;opacity:0.98;fill-opacity:1" />
  <path
     d="m 121.9,172.35054 c 4.5,-3.1 9.1,-6.3 13.9,-9.1 2.3,2.1 4.6,4.2 6.8,6.4 -3.6,1.6 -7.1,3.6 -10.7,5.1 -3.4,-0.4 -6.7,-1.4 -10,-2.4 z"
     class="b"
     id="path3558"
     inkscape:connector-curvature="0"
     style="fill:#010101;opacity:0.98" />
  <path
     d="m 612.2,178.25054 c 5.7,-5 11.2,-10.1 16.8,-15.1 5.1,3.1 10.6,5.7 16.2,7.8 0.4,6.4 0.6,12.9 0.6,19.3 -7.4,-3 -14.7,-6 -22.4,-7.9 -1.9,1.7 -3.9,3.4 -5.8,5.1 1.1,3 2.1,6 3.1,9 2.4,1.1 4.8,2.2 7.2,3.2 -0.1,0.6 -0.3,1.8 -0.4,2.3 -5.5,-2.3 -11.1,-4.3 -16.6,-6.7 -1.7,-5 -2.6,-10.4 -6.2,-14.7 2.7,0 5.5,-0.4 7.5,-2.3 z"
     class="a"
     id="path3560"
     inkscape:connector-curvature="0"
     style="fill:#f280a1;opacity:0.98;fill-opacity:1" />
  <path
     d="m 133.4,176.65054 c 3.7,-2 7.5,-3.8 11.4,-5.5 1.9,1.8 3.8,3.6 5.8,5.4 -0.6,3.4 -1.1,6.8 -1.4,10.2 -4.4,0.2 -9.2,-0.1 -12.6,-3.2 -2,-1.7 -2.5,-4.4 -3.2,-6.9 z"
     id="path3562"
     inkscape:connector-curvature="0"
     style="opacity:0.98" />
  <path
     d="m 626.3,180.05054 c 3.3,-2.7 6.5,-5.5 9.9,-8.1 0.3,4.1 0.4,8.3 0.4,12.4 -3.4,-1.4 -6.8,-2.9 -10.3,-4.3 z"
     class="b"
     id="path3564"
     inkscape:connector-curvature="0"
     style="fill:#010101;opacity:0.98" />
  <path
     d="m 101.8,192.85054 c 3.6,-1.1 7.2,-2 10.8,-3 -0.1,4.4 -0.2,8.9 -0.2,13.4 3.4,-1.1 6.9,-2.1 10.5,-1.7 3.8,0.3 7.2,2 10.7,3.4 0.9,-1.3 1.9,-2.5 2.9,-3.7 0.2,3.7 -0.1,7.4 -0.1,11 0.3,1.4 -0.9,2.3 -1.9,2.9 -2.8,0.5 -5.6,-0.2 -8.3,-0.6 -0.5,5.1 -0.3,10.3 -0.4,15.5 -3.7,2.2 -6.6,5.4 -10,8 -1.2,-1.4 -2,-3.2 -3.8,-4.1 -7.2,-4.2 -14.6,-8.3 -21.9,-12.4 -0.9,1.9 -1.9,3.8 -2.9,5.7 -1.4,-0.7 -2.9,-1.4 -4.3,-2.1 1,-2.1 2,-4.1 2.9,-6.1 -2.3,-1.2 -4.5,-2.8 -7.1,-3.2 -2.6,-0.1 -5.2,0.7 -7.7,1.5 1.9,-3.2 4.4,-6 7.6,-7.9 -0.6,-5.2 0.6,-10.4 3.4,-14.8 0.3,3 -0.2,6.6 2.4,8.6 5,3.4 10.2,6.3 15.3,9.6 -0.1,-6 -0.7,-12 -0.8,-18.1 0.3,-1.4 1.8,-1.5 2.9,-1.9 z"
     class="a"
     id="path3566"
     inkscape:connector-curvature="0"
     style="fill:#f280a1;fill-opacity:1;opacity:0.98" />
  <path
     d="m 652,191.55054 c 4.2,1.5 8.2,3.4 12.3,5.3 0.8,3.8 -0.5,7.5 -2.1,10.9 4,1.9 7.8,4.2 11.7,6.3 -0.2,3.8 -0.8,7.5 -1.6,11.1 -2.9,-1.6 -5.8,-3.3 -8.6,-5 0.5,-2.9 0.8,-5.9 0.9,-8.9 -1.8,-0.6 -3.4,-2.1 -5.3,-1.9 -6,3.5 -11.7,7.5 -17.7,11 -0.1,2.1 -0.1,4.1 -0.1,6.2 1.5,0.8 2.9,1.6 4.4,2.4 -0.1,0.7 -0.2,2.1 -0.2,2.8 -4.4,-2.6 -8.8,-4.9 -13.4,-7 0.3,-4.7 0.1,-9.5 -1.2,-14.1 2.5,0 5.4,0.8 7.6,-0.9 4,-2.6 7.9,-5.5 11.9,-8.1 1.3,-1 3.1,-1.8 3.8,-3.4 1.4,-2.7 -1.7,-4.3 -2.4,-6.7 z"
     class="a"
     id="path3568"
     inkscape:connector-curvature="0"
     style="fill:#f280a1;opacity:0.98;fill-opacity:1" />
  <path
     d="m 101.8,203.75054 c 2.8,-1.1 5.5,-2.1 8.4,-2.8 0.1,6.3 0.3,12.5 0.6,18.7 -2.4,-1.5 -4.8,-3 -7.3,-4.5 -0.6,-1.3 -1.1,-2.7 -1.7,-4.1 0,-2.4 0,-4.9 0,-7.3 z"
     class="b"
     id="path3570"
     inkscape:connector-curvature="0"
     style="fill:#010101;opacity:0.98" />
  <path
     d="m 113.2,213.85054 c 3.5,-1.1 7.4,-1.9 11,-0.5 0,2.3 0.1,4.6 -0.1,6.9 -1.2,2 -3.4,3.2 -5.1,4.7 -1.8,-1.1 -3.6,-2.2 -5.5,-3.2 -0.1,-2.7 -0.2,-5.3 -0.3,-7.9 z"
     class="b"
     id="path3572"
     inkscape:connector-curvature="0"
     style="fill:#010101;opacity:0.98" />
  <path
     d="m 341.3,371.55054 c 3.3,-0.6 6.8,-0.3 10,1 3.5,2.5 6,6.1 7.1,10.3 0.2,3.3 -0.8,6.5 -2,9.5 -3.5,5.3 -10.2,7.5 -16.3,5.8 -2.9,-1.8 -5.9,-3.8 -7.3,-7.1 -2.1,-3.7 -1.7,-8.3 -0.3,-12.2 2,-3.4 5,-6.3 8.8,-7.3 z"
     id="path3574"
     inkscape:connector-curvature="0"
     style="opacity:0.98" />
  <path
     d="m 470.8,379.55054 c 2.7,3.5 3.7,7.8 4.9,11.9 2.6,9.7 3.5,19.8 1.9,29.7 -1.3,11.9 -1.8,23.9 -4.1,35.7 -1.1,5.3 -2,10.7 -4.3,15.6 0.9,-5.4 2.4,-10.7 3.4,-16.1 2.7,-13.3 2.8,-26.9 4.6,-40.3 1.2,-12.5 -2,-24.9 -6.4,-36.5 z"
     id="path3576"
     inkscape:connector-curvature="0"
     style="fill:#818181;opacity:0.98" />
  <path
     d="m 444,505.15054 c 5.7,-1.4 11.1,-4.3 17,-3.6 0.4,0.6 1.1,1.9 1.5,2.5 -0.1,2.9 -1,5.6 -2.1,8.2 -0.3,0.3 -0.9,0.9 -1.2,1.1 -2.1,0.6 -4.1,1.2 -6.1,1.8 -2.4,0.6 -4.7,1.3 -7.1,2.1 -0.5,0.1 -1.6,0.4 -2.1,0.5 -2.6,0.9 -5.2,1.7 -7.9,2.6 -0.5,0.1 -1.6,0.3 -2.2,0.3 -1.5,0.6 -3.1,1.1 -4.7,1.7 -0.5,0.1 -1.6,0.3 -2.2,0.4 -2.3,0.9 -4.6,1.6 -6.9,2.2 -2.4,0.7 -4.7,1.4 -7,2.1 -5.5,1.5 -10.9,3.3 -16.4,4.7 -1.7,-3 -1.4,-6.5 -1,-9.8 0.3,-2.7 3.2,-3.3 5.3,-4.1 2.1,-0.5 4.1,-1.1 6.1,-1.7 1.1,-0.3 2.1,-0.6 3.2,-0.9 1.2,-0.4 2.5,-0.8 3.8,-1.1 1.3,-0.5 2.6,-0.8 3.9,-1.2 2.1,-0.6 4.1,-1.3 6.1,-1.9 1.1,-0.3 2.1,-0.6 3.1,-0.9 3.4,-1 6.7,-2 10,-2.9 2.3,-0.8 4.6,-1.5 6.9,-2.1 z"
     id="path3578"
     inkscape:connector-curvature="0"
     style="fill:#f280a1;opacity:0.98;fill-opacity:1" />
  <path
     d="m 323.3,502.05054 c 3.6,0.3 6.7,2.1 9.8,3.7 1,0.5 1.9,1 2.8,1.5 1.8,0.8 3.5,1.6 5.3,2.5 2.2,1.1 4.5,2.3 6.8,3.4 2.3,1.1 4.6,2.4 7,3.4 2.5,-0.6 4.7,-2.2 7,-3.4 7.4,-3.6 14.6,-7.9 22.3,-11.1 0.5,5 0,10 0.9,15 0.1,7.8 0.5,15.7 0.5,23.5 l 0.6,0 c 0,3.6 0.1,7.3 0.1,11 -0.8,0 -1.5,0 -2.2,0.1 -8.2,-7.8 -16.5,-15.7 -26.3,-21.3 -2.5,-2 -5.5,-0.3 -7.9,0.8 -4.3,2 -8.6,4.1 -12.9,6.2 -1,0.4 -2.1,0.9 -3.2,1.3 -0.5,0.4 -1.5,1 -2,1.3 -1.2,0.4 -2.5,0.7 -3.8,1 -0.4,-1.3 -0.9,-2.6 -1.3,-3.9 -0.2,-1.3 -0.4,-2.7 -0.6,-4.1 -0.6,-2.6 -0.8,-5.2 -1.4,-7.8 -0.2,-3.1 -0.3,-6.1 -1,-9.1 -0.3,-4.6 -0.5,-9.3 -0.5,-14 z"
     class="c"
     id="path3580"
     inkscape:connector-curvature="0"
     style="fill:#f280a1;opacity:0.98;fill-opacity:1" />
  <path
     d="m 261.6,593.55054 c 4.6,-4.8 13.1,-5.9 18.2,-1.2 3,2.5 4.7,6.8 8.7,7.9 2.8,0.8 5.6,1.6 8.3,2.8 -7,0.7 -15.2,0.7 -20,6.8 -4.4,6.5 -9.7,12.3 -14.9,18.2 -2.9,3.3 -7.6,3.8 -11.7,4.5 5.7,0.5 12.3,0.7 16.4,-3.9 4.9,-5.9 8.8,-12.5 13.9,-18.2 6.1,-5.4 15,-4.2 22.6,-4.1 3.8,-0.2 6.6,3.2 7.4,6.7 0.8,2.6 -0.8,5.1 -2.2,7.3 -3.3,4.4 -9.1,5.5 -14.1,7.3 4,2.2 8.6,6.1 7.3,11.3 -2.2,5.1 -5,10 -7.3,15 -9.1,-2.2 -18.4,-2.4 -27.7,-2.8 -4.2,-2 -6.8,-6.3 -10.5,-9.1 -5.5,-4 -11.4,-8 -18.3,-9.1 -1.3,0 -2.5,0.5 -3.8,0.7 -0.6,1.7 -1.2,3.4 -1.8,5.1 -1.1,-0.1 -2.2,-0.2 -3.3,-0.3 -0.6,-1.1 -1.1,-2.3 -1.6,-3.5 1.5,-1.9 3.1,-4.1 5.8,-4.3 6.3,-0.9 14.2,1 18.7,-4.6 -1.6,-3.3 -5.1,-4.9 -8.6,-5 0.1,-0.5 0.5,-1.6 0.6,-2.2 1.5,-0.3 2.9,-0.7 4.4,-1.1 3.2,0.6 6.2,1.7 9.2,3 1.6,-3 0.6,-6.8 -2,-8.9 -2.5,-1.6 -5.4,-2.1 -8.2,-2.8 4.5,-4.5 10.9,-2 16,-0.1 2.2,-1.4 4,-3.3 6.3,-4.4 3.7,-2 8,-1.8 12,-2.2 -4.5,-0.7 -7.5,-4.2 -10.3,-7.5 -2.4,-2.8 -6.3,-1.6 -9.5,-1.3 z"
     class="c"
     id="path3582"
     inkscape:connector-curvature="0"
     style="fill:#f280a1;opacity:0.98;fill-opacity:1" />
  <path
     d="m 502.5,605.55054 c 5.4,1 10.9,1.6 16.4,2.1 -1.3,6.2 -3.1,12.2 -4.8,18.3 1.7,2 3.3,4 4.9,6.1 3,-0.5 6,-1.2 9,-1.8 0.8,-2 1.5,-3.9 2.2,-5.9 0.6,0 1.9,-0.1 2.5,-0.2 -1.6,4.8 -3.2,9.7 -5.4,14.3 -1.7,1.6 -4.3,1.3 -6.4,1.6 -3.2,0.1 -6.3,1.3 -9.2,2.5 -0.2,-2.1 0.4,-4.4 -0.9,-6.2 -4.3,-6.5 -9.6,-12.4 -13.6,-19.1 2.2,-3.7 4.1,-7.6 5.3,-11.7 z"
     class="a"
     id="path3584"
     inkscape:connector-curvature="0"
     style="fill:#f280a1;opacity:0.98;fill-opacity:1" />
  <path
     d="m 289.3,612.25054 c 2.1,-3.1 6.1,-4.3 9.7,-3.7 1.4,3.2 2.6,7 0.8,10.3 -2.3,5.2 -8.4,7.3 -13.7,7.8 1.5,-2.6 3.1,-5.1 4.6,-7.6 -0.5,-0.2 -1.4,-0.5 -1.9,-0.7 -5.4,8.4 -10.8,17 -16.2,25.4 -4.9,-2.8 -9.5,-5.9 -14.6,-8.2 4.4,0.3 8.8,0.4 13.1,-0.2 2.1,-1.2 4.4,-2.3 5.7,-4.5 4.2,-6.1 8.2,-12.5 12.5,-18.6 z"
     class="b"
     id="path3586"
     inkscape:connector-curvature="0"
     style="fill:#010101;opacity:0.98" />
  <path
     d="m 504.1,613.45054 c 3.7,0.5 7.3,1.1 11,1.5 -0.9,2.8 -1.9,5.6 -3,8.4 -2.7,-3.3 -5.3,-6.6 -8,-9.9 z"
     id="path3588"
     inkscape:connector-curvature="0"
     style="fill:#020202;opacity:0.98" />
  <path
     d="m 320.6,616.35054 c 2,1.3 3.6,3 4.7,5.1 2.9,-1.8 6.2,-2.5 9.6,-2.2 -3.1,2.1 -5.9,4.9 -7.1,8.6 -3.9,10.7 -7.9,21.4 -11.6,32.2 1.9,2.5 4.3,4.3 7.4,5 -3.9,1.3 -7.8,3.8 -12,3.7 -2.7,-3.4 -5.4,-6.8 -8.7,-9.5 2,-0.9 4.5,-1.7 5.2,-4 4.5,-10.4 8.7,-20.9 13,-31.3 1.2,-2.5 0.3,-5.2 -0.5,-7.6 z"
     class="a"
     id="path3590"
     inkscape:connector-curvature="0"
     style="fill:#f280a1;opacity:0.98;fill-opacity:1" />
  <path
     d="m 484.6,622.75054 c 1,-2.2 2.1,-4.4 3.2,-6.5 1.6,2.5 3.3,4.9 4.9,7.3 -2.1,1.1 -4.3,2.2 -6.4,3.4 3.7,5.6 7.1,11.5 10.7,17.2 3.2,4.1 8.9,4.3 13.1,6.7 1.6,1.1 1.8,3.5 0.6,4.9 -2.1,3.1 -4.6,5.8 -6.9,8.7 -6.5,1.3 -13,3 -18.6,6.7 -2.5,1.4 -4.7,3.4 -7.7,3.6 1,-5.2 4.2,-9.6 5.4,-14.7 -3.7,-0.3 -7.5,-0.7 -11.2,-1.5 -3.8,-8.6 -7.6,-17.2 -11.5,-25.8 3.9,-2.3 7.3,-5.4 9.3,-9.5 5,0 10.1,0.3 15.1,-0.5 z"
     class="c"
     id="path3592"
     inkscape:connector-curvature="0"
     style="fill:#f280a1;opacity:0.98;fill-opacity:1" />
  <path
     d="m 408.8,626.45054 c 1.6,-0.3 3.3,-0.6 4.9,-0.8 -1.7,3.2 -3.4,6.4 -5.1,9.6 0,-2.9 0.1,-5.9 0.2,-8.8 z"
     id="path3594"
     inkscape:connector-curvature="0"
     style="fill:#f280a1;opacity:0.98;fill-opacity:1" />
  <path
     d="m 372.1,629.85054 c 2.4,-2.1 5.3,-3.6 8.6,-3.8 -1.8,2 -3.7,4.1 -3.9,7 -0.4,5.4 -0.4,10.9 -1.1,16.4 3.9,-2.9 7.2,-6.6 10.8,-9.9 2.6,2.9 5,5.8 7.6,8.5 -2.5,2.5 -5.1,4.9 -7.8,7.1 5,4.4 8,10.8 8.8,17.4 1.4,0 2.9,0.1 4.3,0.1 -1.9,2 -4.1,3.7 -6.3,5.4 -1.2,0.7 -2.5,2.1 -4.1,1.2 -2,-1.9 -3,-4.5 -4,-7 -3.8,2.2 -7.3,5 -11.4,6.8 -3.7,-1.2 -6.9,-3.6 -10.6,-4.9 0.2,-0.3 0.6,-0.9 0.8,-1.1 0.8,-1.6 1.5,-3.3 1.6,-5 0.6,-7.7 1.6,-15.4 2.3,-23.2 -1.4,0 -2.8,-0.1 -4.2,-0.2 0.1,-1.5 0.2,-2.9 0.3,-4.4 1.5,0 2.9,0.1 4.4,0.1 0.9,-4.6 0.3,-9.4 -1.7,-13.7 2,0.8 3.8,1.9 5.6,3.2 z"
     class="a"
     id="path3596"
     inkscape:connector-curvature="0"
     style="fill:#f280a1;opacity:0.98;fill-opacity:1" />
  <path
     d="m 282.3,632.15054 c 1.6,-3.8 5.5,-3.6 8.9,-3.7 1.4,2.6 1.1,5.2 0,7.8 -3.5,-0.1 -6.5,-1.7 -8.9,-4.1 z"
     class="b"
     id="path3598"
     inkscape:connector-curvature="0"
     style="fill:#010101;opacity:0.98" />
  <path
     d="m 468.3,630.75054 c 3.4,-0.2 6.9,-0.7 10.3,-0.4 2.8,4.6 5.3,9.5 8.1,14.2 1.9,2.6 0.4,5.8 -0.6,8.4 -2.3,-0.1 -4.7,-0.2 -7,-0.5 -3.5,-7.3 -7.3,-14.4 -10.8,-21.7 z"
     class="b"
     id="path3600"
     inkscape:connector-curvature="0"
     style="fill:#010101;opacity:0.98" />
  <path
     d="m 433.9,643.45054 c 2.5,-3.5 4.9,-6.9 7.1,-10.5 2.3,1 4.5,2.4 6.9,3.1 1.3,-1.1 2.5,-2.4 3.9,-3.4 -0.1,2.8 -1.9,5.6 -0.7,8.3 2.6,6.9 5,13.8 7.8,20.6 1.5,0.2 3,0 4.1,-1.1 0.5,0.1 1.5,0.3 1.9,0.4 -2.1,3.1 -4.4,6.1 -6.8,9 -2.7,-0.4 -5.2,-1.6 -7.2,-3.5 -2.2,-7.4 -4.7,-14.7 -7.1,-22.1 -0.8,-2.3 -3.4,-3.2 -5.5,-3.9 -1.4,2 -2.7,3.9 -4.1,5.9 1.6,5.9 3,11.8 4.7,17.7 0.6,2 2.6,2.8 4.1,4.1 -1.8,2.3 -3.6,4.8 -6,6.5 -3,-1 -5.9,-2.6 -8.7,-4.1 0.6,-0.6 1.7,-1.9 2.3,-2.6 -1.3,-6.6 -2.9,-13.1 -4.3,-19.7 -0.6,-1.4 -0.5,-3.9 -2.5,-3.7 -0.8,0 -2.4,-0.1 -3.1,-0.2 1.7,-2.8 3.6,-5.4 5.4,-8.2 3.2,1.8 6,4.2 7.8,7.4 z"
     class="c"
     id="path3602"
     inkscape:connector-curvature="0"
     style="fill:#f280a1;opacity:0.98;fill-opacity:1" />
  <path
     d="m 281.2,634.25054 c 2.8,1.8 5.7,3.4 8.8,4.6 -0.8,1.4 -1.6,2.8 -2.5,4.1 -3.2,-0.9 -6,-2.9 -9.1,-3.9 0.9,-1.6 1.9,-3.2 2.8,-4.8 z"
     class="b"
     id="path3604"
     inkscape:connector-curvature="0"
     style="fill:#010101;opacity:0.98" />
  <path
     d="m 337.1,641.65054 c 4.5,-1 8.8,-2.7 12.9,-4.7 2.8,4.1 5.8,8 8.7,12 -5.6,3.3 -11.2,6.5 -17.1,9.2 -0.6,2.5 -1.2,5 -2,7.4 2.4,1.6 4.6,3.6 7.4,4.4 2.1,-0.5 4.1,-1.5 6.2,-2.4 0.4,0.5 0.9,1.1 1.3,1.6 -4.4,2.1 -8.9,4.2 -13.4,5.9 -2.3,1.3 -4.3,-0.8 -6,-2.1 -2.3,-2.4 -5.4,-3.5 -8.4,-4.8 2.1,-1.6 4.3,-3.3 4.8,-6.1 1.8,-6.8 3.9,-13.5 5.6,-20.4 z"
     class="c"
     id="path3606"
     inkscape:connector-curvature="0"
     style="fill:#f280a1;opacity:0.98;fill-opacity:1" />
  <path
     d="m 402.7,644.35054 c 1.8,-1.6 3.6,-3.4 5.3,-5.1 2.3,1.4 4.5,2.9 6.8,4.4 -2.8,3.7 -1.1,8.2 -0.6,12.3 1,5.1 1,10.5 2.7,15.4 1.9,0.7 3.6,-0.9 5.4,-1.1 -1.5,2.8 -4,4.8 -6.3,6.8 -2.6,2.9 -7.2,0.3 -8.3,-2.8 -1,-5 -1.1,-10.1 -1.8,-15.2 -0.7,-4.9 0,-10.4 -3.2,-14.7 z"
     class="a"
     id="path3608"
     inkscape:connector-curvature="0"
     style="fill:#f280a1;opacity:0.98;fill-opacity:1" />
  <path
     d="m 276.9,641.15054 c 3.3,0.6 6.3,2.2 9,4.2 -0.6,1.5 -1.3,3 -1.9,4.5 -2.4,-0.4 -5.5,0.6 -7.4,-1.3 -0.9,-0.8 -1.7,-1.6 -2.5,-2.5 0.8,-1.8 1.8,-3.3 2.8,-4.9 z"
     class="b"
     id="path3610"
     inkscape:connector-curvature="0"
     style="fill:#010101;opacity:0.98" />
  <path
     d="m 342.3,655.25054 c 0.8,-4 1.8,-8 2.6,-12 1.9,2.8 3.8,5.5 5.8,8.2 -2.7,1.4 -5.6,2.6 -8.4,3.8 z"
     class="b"
     id="path3612"
     inkscape:connector-curvature="0"
     style="fill:#010101;opacity:0.98" />
  <path
     d="m 375.6,653.75054 c 1.2,-3.1 4,-4.8 6.5,-6.7 1.6,1.7 3.2,3.4 4.8,5.1 -3.8,3.3 -7.7,6.6 -11.6,9.8 0.1,-2.7 0,-5.5 0.3,-8.2 z"
     class="b"
     id="path3614"
     inkscape:connector-curvature="0"
     style="fill:#010101;opacity:0.98" />
  <path
     d="m 489.9,650.45054 c 5.1,3.6 11.1,5.5 17.2,6.9 -7.7,1.6 -15.6,3.1 -22.3,7.4 1.9,-4.7 3.6,-9.5 5.1,-14.3 z"
     class="b"
     id="path3616"
     inkscape:connector-curvature="0"
     style="fill:#010101;opacity:0.98" />
  <path
     d="m 374.7,665.05054 c 1.7,-1.3 3.4,-2.6 5.2,-3.7 2.3,2.4 4.3,5.2 4.9,8.5 -1.8,1.2 -3.6,2.5 -5.5,3.7 -1.6,-0.8 -3.3,-1.6 -4.9,-2.3 0.1,-2.1 0.2,-4.1 0.3,-6.2 z"
     class="b"
     id="path3618"
     inkscape:connector-curvature="0"
     style="fill:#010101;opacity:0.98" />
</svg>
